<svg width="81" height="77" viewBox="0 0 81 77" fill="none" xmlns="http://www.w3.org/2000/svg">
<path d="M80.2083 38.5C80.2083 42.5226 73.7531 45.4715 72.5798 49.101C71.3635 52.8627 74.8184 59.0523 72.5499 62.1836C70.2586 65.3468 63.3163 63.9468 60.1685 66.2477C57.0515 68.5266 56.2441 75.6048 52.4996 76.8267C48.8867 78.0045 44.1084 72.7935 40.1042 72.7935C36.0999 72.7935 31.3216 78.0045 27.7087 76.8258C23.9642 75.6048 23.1569 68.5266 20.0398 66.2468C16.892 63.945 9.94794 65.3459 7.65841 62.1828C5.38993 59.0514 8.84486 52.8618 7.62857 49.1001C6.45528 45.4715 0 42.5226 0 38.5C0 34.4774 6.45528 31.5285 7.62857 27.899C8.84486 24.1373 5.38993 17.9477 7.65841 14.8164C9.9497 11.6532 16.892 13.0532 20.0398 10.7523C23.1569 8.47338 23.9642 1.39518 27.7087 0.17331C31.3216 -1.00448 36.0999 4.20654 40.1042 4.20654C44.1084 4.20654 48.8867 -1.00448 52.4996 0.174192C56.2441 1.39518 57.0515 8.47339 60.1685 10.7532C63.3163 13.055 70.2604 11.6541 72.5499 14.8172C74.8184 17.9486 71.3635 24.1382 72.5798 27.8999C73.7531 31.5285 80.2083 34.4774 80.2083 38.5Z" fill="#0D0543"/>
<path d="M40.6037 18.8009L29.0581 40.5346C28.9315 40.7732 28.8686 41.0405 28.8755 41.3106C28.8824 41.5807 28.9589 41.8444 29.0976 42.0762C29.2362 42.308 29.4324 42.5 29.6669 42.6336C29.9015 42.7672 30.1666 42.838 30.4365 42.8389H36.5055C36.7112 42.8388 36.915 42.8793 37.1051 42.958C37.2952 43.0367 37.4679 43.1522 37.6135 43.2978C37.759 43.4433 37.8744 43.6162 37.9532 43.8065C38.032 43.9967 38.0725 44.2006 38.0725 44.4066V57.463C38.0725 59.0775 40.2159 59.6385 41.0047 58.2297L53.0589 36.7041C53.1922 36.4656 53.2609 36.1963 53.2583 35.923C53.2556 35.6497 53.1816 35.3818 53.0436 35.146C52.9057 34.9101 52.7086 34.7144 52.4718 34.5782C52.235 34.4421 51.9668 34.3703 51.6937 34.3699L45.1145 34.3628C44.6995 34.3621 44.3017 34.1967 44.0084 33.9028C43.7151 33.6089 43.5503 33.2105 43.5501 32.7951V19.5375C43.5527 17.9037 41.3696 17.3594 40.6037 18.8009Z" fill="white"/>
</svg>
